# xmcd
#
# Track frame offsets:
#	150
#	8667
#	14550
#	21708
#	29588
#	39919
#	47066
#	54834
#	62533
#	68082
#	75029
#	83922
#	89639
#	95984
#	102248
#	109502
#	115049
#	125212
#
# Disc length: 1790 seconds
#
# Revision: 1
# Processed by: cddbd v1.5.2PL0 Copyright (c) Steve Scherf et al.
# Submitted via: audiograbber 1.83.01
#
DISCID=e506fc12
DTITLE=Don Jasperson - Flat Grass Pickin'
DYEAR=2003
DGENRE=Bluegrass
TTITLE0=Patriotic Medley
TTITLE1=Whistling Rufus
TTITLE2=Rangers Waltz
TTITLE3=St. Anne's Reel
TTITLE4=Soldiers Joy
TTITLE5=Black Hawk Waltz
TTITLE6=So Long Sally Ann
TTITLE7=Jessie James
TTITLE8=Red Wing
TTITLE9=Guitar Boogie Shuffle
TTITLE10=Ashokan Farewell
TTITLE11=Woodchoppers Reel
TTITLE12=Flop-eared Mule
TTITLE13=Mexican Fandango
TTITLE14=Cherokee Shuffle
TTITLE15=B.S. Song
TTITLE16=Dueling Banjos
TTITLE17=Dill Pickle Rag
EXTD=
EXTT0=
EXTT1=
EXTT2=
EXTT3=
EXTT4=
EXTT5=
EXTT6=
EXTT7=
EXTT8=
EXTT9=
EXTT10=
EXTT11=
EXTT12=
EXTT13=
EXTT14=
EXTT15=
EXTT16=
EXTT17=
PLAYORDER=
